<svg xmlns="http://www.w3.org/2000/svg" width="160" height="70" viewBox="0 0 160 70" role="img" aria-labelledby="title">
<title id="title">Tailwind CSS — estilização</title>
<defs>
  <linearGradient id="surface" x1="0" y1="0" x2="1" y2="1"><stop stop-color="#132031"/><stop offset="1" stop-color="#0B121C"/></linearGradient>
  <linearGradient id="edge" x1="0" y1="0" x2="1" y2="1"><stop stop-color="#69B6FF" stop-opacity=".4"/><stop offset=".65" stop-color="#243347"/><stop offset="1" stop-color="#1B2735"/></linearGradient>
</defs>
<rect x="1.5" y="2.5" width="153" height="62" rx="12" fill="#000" opacity=".12"/>
<rect x="1.5" y="1.5" width="153" height="62" rx="12" fill="url(#surface)" stroke="url(#edge)"/>
<rect x="11" y="12" width="40" height="40" rx="10" fill="#102B44"/>
<g transform="translate(17.5 18.5) scale(1.125)" color="#69B6FF"><g fill="currentColor"><path d="M12.001,4.8c-3.2,0-5.2,1.6-6,4.8c1.2-1.6,2.6-2.2,4.2-1.8c0.913,0.228,1.565,0.89,2.288,1.624 C13.666,10.618,15.027,12,18.001,12c3.2,0,5.2-1.6,6-4.8c-1.2,1.6-2.6,2.2-4.2,1.8c-0.913-0.228-1.565-0.89-2.288-1.624 C16.337,6.182,14.976,4.8,12.001,4.8z M6.001,12c-3.2,0-5.2,1.6-6,4.8c1.2-1.6,2.6-2.2,4.2-1.8c0.913,0.228,1.565,0.89,2.288,1.624 c1.177,1.194,2.538,2.576,5.512,2.576c3.2,0,5.2-1.6,6-4.8c-1.2,1.6-2.6,2.2-4.2,1.8c-0.913-0.228-1.565-0.89-2.288-1.624 C10.337,13.382,8.976,12,6.001,12z"/></g></g>
<text x="61" y="30" fill="#EDF4FC" font-family="Segoe UI, Arial, sans-serif" font-size="12.4" font-weight="600">Tailwind CSS</text>
<text x="61" y="44" fill="#91A4BA" font-family="Segoe UI, Arial, sans-serif" font-size="7.4" font-weight="500" letter-spacing=".65">ESTILIZAÇÃO</text>
<path d="M17 58h18" stroke="#69B6FF" stroke-opacity=".65" stroke-width="1.5" stroke-linecap="round"/>
</svg>
